<svg width="21" height="26" viewBox="0 0 21 26" fill="none" xmlns="http://www.w3.org/2000/svg">
<path d="M10.5 25C10.5 25 20 16.84 20 9.16C20 1.48 11.0938 1 10.5 1C9.90625 1 1 1 1 9.16C1 17.32 10.5 25 10.5 25Z" fill="url(#paint0_radial)" stroke="url(#paint1_linear)"/>
<path d="M10.5 12.0935C11.8692 12.0935 13.0162 11.6468 13.0856 11.0632C12.8816 10.5154 12.6593 9.91693 12.441 9.32947C12.2898 9.74806 11.4527 10.0451 10.5 10.0451C9.54719 10.0451 8.71015 9.74806 8.55889 9.32947C8.34061 9.91693 8.11832 10.5154 7.91493 11.0632C7.98425 11.6468 9.13067 12.0935 10.5 12.0935V12.0935ZM10.5 8.40538C11.1439 8.40538 11.7415 8.21397 11.9168 7.91639C11.6756 7.26622 11.4688 6.70792 11.3376 6.35643C11.2505 6.12156 10.8557 6 10.5 6C10.1442 6 9.74943 6.12156 9.66235 6.35643C9.53172 6.70792 9.32432 7.26622 9.08312 7.91639C9.25843 8.21397 9.85657 8.40538 10.5 8.40538ZM15.5302 12.6369L13.3789 11.8042L13.627 12.4681C13.6144 13.1716 12.1924 13.7327 10.5 13.7327C8.80812 13.7327 7.38497 13.1721 7.37294 12.4681L7.62102 11.8042L5.46969 12.6369C4.8664 12.8702 4.84062 13.302 5.41354 13.5962L9.45953 15.6793C10.0313 15.9736 10.968 15.9736 11.5404 15.6793L15.587 13.5962C16.1593 13.302 16.1335 12.8702 15.5302 12.6369Z" fill="white"/>
<defs>
<radialGradient id="paint0_radial" cx="0" cy="0" r="1" gradientUnits="userSpaceOnUse" gradientTransform="translate(10.5 10) scale(10.6875 15)">
<stop stop-color="#73C5FF"/>
<stop offset="0.75" stop-color="#57B9FD"/>
</radialGradient>
<linearGradient id="paint1_linear" x1="10.5" y1="1" x2="10.5" y2="25" gradientUnits="userSpaceOnUse">
<stop stop-color="white" stop-opacity="0"/>
<stop offset="1" stop-color="white"/>
</linearGradient>
</defs>
</svg>
