<svg width="11" height="10" viewBox="0 0 11 10" fill="none" xmlns="http://www.w3.org/2000/svg">
<path d="M5.49996 6.03954C6.74477 6.03954 7.78749 5.6335 7.85051 5.10295C7.66509 4.6049 7.46301 4.06085 7.26457 3.52679C7.12707 3.90733 6.36612 4.17736 5.49996 4.17736C4.63381 4.17736 3.87286 3.90733 3.73536 3.52679C3.53692 4.06085 3.33483 4.6049 3.14993 5.10295C3.21296 5.6335 4.25516 6.03954 5.49996 6.03954V6.03954ZM5.49996 2.68671C6.08539 2.68671 6.62862 2.5127 6.788 2.24217C6.56873 1.65111 6.3807 1.14356 6.26143 0.824031C6.18226 0.610511 5.82341 0.5 5.49996 0.5C5.17652 0.5 4.81766 0.610511 4.7385 0.824031C4.61974 1.14356 4.4312 1.65111 4.21193 2.24217C4.3713 2.5127 4.91506 2.68671 5.49996 2.68671ZM10.0729 6.53359L8.11718 5.77651L8.34271 6.38007C8.33125 7.01963 7.03852 7.52968 5.49996 7.52968C3.96192 7.52968 2.66816 7.02013 2.65722 6.38007L2.88274 5.77651L0.926989 6.53359C0.378545 6.74561 0.355107 7.13815 0.875947 7.40567L4.55412 9.29935C5.07392 9.56688 5.92549 9.56688 6.44581 9.29935L10.1245 7.40567C10.6448 7.13815 10.6214 6.74561 10.0729 6.53359Z" fill="black"/>
</svg>
